<mxfile host="app.diagrams.net" modified="2022-08-24T00:15:53.691Z" agent="5.0 (Windows NT 10.0; Win64; x64) AppleWebKit/537.36 (KHTML, like Gecko) Chrome/104.0.0.0 Safari/537.36" etag="qbzsB27olmVTz0UHfuAk" version="20.2.7" type="github">
  <diagram id="C5RBs43oDa-KdzZeNtuy" name="Page-1">
    <mxGraphModel dx="1422" dy="794" grid="1" gridSize="10" guides="1" tooltips="1" connect="1" arrows="1" fold="1" page="1" pageScale="1" pageWidth="1200" pageHeight="1920" math="0" shadow="0">
      <root>
        <mxCell id="WIyWlLk6GJQsqaUBKTNV-0" />
        <mxCell id="WIyWlLk6GJQsqaUBKTNV-1" parent="WIyWlLk6GJQsqaUBKTNV-0" />
        <mxCell id="WIyWlLk6GJQsqaUBKTNV-3" value="Cadastro" style="rounded=1;whiteSpace=wrap;html=1;fontSize=12;glass=0;strokeWidth=1;shadow=0;fillColor=#f8cecc;strokeColor=#b85450;fontFamily=Montserrat;1,300&amp;family=Montserrat:wght@200&amp;family=Sanchez&amp;display=swap&quot; rel=&quot;stylesheet&quot;&gt;;" parent="WIyWlLk6GJQsqaUBKTNV-1" vertex="1">
          <mxGeometry x="160" y="80" width="120" height="40" as="geometry" />
        </mxCell>
        <mxCell id="WIyWlLk6GJQsqaUBKTNV-6" value="Idade&amp;nbsp; &amp;gt;=16 e&lt;br&gt;&amp;nbsp;&amp;lt;= 69" style="rhombus;whiteSpace=wrap;html=1;shadow=0;fontFamily=Montserrat;fontSize=10;align=center;strokeWidth=1;spacing=6;spacingTop=-4;fillColor=#ffe6cc;strokeColor=#d79b00;" parent="WIyWlLk6GJQsqaUBKTNV-1" vertex="1">
          <mxGeometry x="170" y="170" width="100" height="80" as="geometry" />
        </mxCell>
        <mxCell id="_vc62bu4L6rgQ7pUkIKq-5" value="" style="line;strokeWidth=2;html=1;fontSize=10;rotation=90;fontFamily=Montserrat;" vertex="1" parent="WIyWlLk6GJQsqaUBKTNV-1">
          <mxGeometry x="195" y="140" width="50" height="10" as="geometry" />
        </mxCell>
        <mxCell id="_vc62bu4L6rgQ7pUkIKq-12" value="" style="line;strokeWidth=2;html=1;fontSize=10;rotation=90;fontFamily=Montserrat;" vertex="1" parent="WIyWlLk6GJQsqaUBKTNV-1">
          <mxGeometry x="151.25" y="313.75" width="137.5" height="10" as="geometry" />
        </mxCell>
        <mxCell id="_vc62bu4L6rgQ7pUkIKq-15" value="" style="line;strokeWidth=2;html=1;fontSize=10;rotation=-45;fontFamily=Montserrat;" vertex="1" parent="WIyWlLk6GJQsqaUBKTNV-1">
          <mxGeometry x="260" y="400" width="50" height="10" as="geometry" />
        </mxCell>
        <mxCell id="_vc62bu4L6rgQ7pUkIKq-16" value="" style="line;strokeWidth=2;html=1;fontSize=10;rotation=45;fontFamily=Montserrat;" vertex="1" parent="WIyWlLk6GJQsqaUBKTNV-1">
          <mxGeometry x="260" y="430" width="50" height="10" as="geometry" />
        </mxCell>
        <mxCell id="_vc62bu4L6rgQ7pUkIKq-17" value="SIM" style="text;html=1;strokeColor=none;fillColor=none;align=center;verticalAlign=middle;whiteSpace=wrap;rounded=0;fontSize=10;fontFamily=Montserrat;fontStyle=1" vertex="1" parent="WIyWlLk6GJQsqaUBKTNV-1">
          <mxGeometry x="245" y="370" width="40" height="20" as="geometry" />
        </mxCell>
        <mxCell id="_vc62bu4L6rgQ7pUkIKq-18" value="NÃO" style="text;html=1;strokeColor=none;fillColor=none;align=center;verticalAlign=middle;whiteSpace=wrap;rounded=0;fontSize=10;fontFamily=Montserrat;fontStyle=1" vertex="1" parent="WIyWlLk6GJQsqaUBKTNV-1">
          <mxGeometry x="248.75" y="450" width="40" height="20" as="geometry" />
        </mxCell>
        <mxCell id="_vc62bu4L6rgQ7pUkIKq-19" value="Pode doar" style="rounded=1;whiteSpace=wrap;html=1;fontSize=12;glass=0;strokeWidth=1;shadow=0;fontFamily=Montserrat;" vertex="1" parent="WIyWlLk6GJQsqaUBKTNV-1">
          <mxGeometry x="290" y="360" width="120" height="40" as="geometry" />
        </mxCell>
        <mxCell id="_vc62bu4L6rgQ7pUkIKq-20" value="Não pode doar" style="rounded=1;whiteSpace=wrap;html=1;fontSize=12;glass=0;strokeWidth=1;shadow=0;fontFamily=Montserrat;" vertex="1" parent="WIyWlLk6GJQsqaUBKTNV-1">
          <mxGeometry x="290" y="440" width="120" height="40" as="geometry" />
        </mxCell>
        <mxCell id="_vc62bu4L6rgQ7pUkIKq-21" value="" style="line;strokeWidth=2;html=1;fontSize=10;rotation=0;fontFamily=Montserrat;fontStyle=0" vertex="1" parent="WIyWlLk6GJQsqaUBKTNV-1">
          <mxGeometry x="270" y="205" width="570" height="10" as="geometry" />
        </mxCell>
        <mxCell id="_vc62bu4L6rgQ7pUkIKq-22" value="" style="line;strokeWidth=2;html=1;fontSize=10;rotation=-225;fontFamily=Montserrat;" vertex="1" parent="WIyWlLk6GJQsqaUBKTNV-1">
          <mxGeometry x="390" y="190" width="50" height="10" as="geometry" />
        </mxCell>
        <mxCell id="_vc62bu4L6rgQ7pUkIKq-24" value="" style="line;strokeWidth=2;html=1;fontSize=10;rotation=-135;fontFamily=Montserrat;" vertex="1" parent="WIyWlLk6GJQsqaUBKTNV-1">
          <mxGeometry x="390" y="220" width="50" height="10" as="geometry" />
        </mxCell>
        <mxCell id="_vc62bu4L6rgQ7pUkIKq-25" value="SE IDADE = 16 OU 17" style="text;html=1;strokeColor=none;fillColor=none;align=center;verticalAlign=middle;whiteSpace=wrap;rounded=0;fontSize=10;fontFamily=Montserrat;fontStyle=1" vertex="1" parent="WIyWlLk6GJQsqaUBKTNV-1">
          <mxGeometry x="280" y="180" width="120" height="20" as="geometry" />
        </mxCell>
        <mxCell id="_vc62bu4L6rgQ7pUkIKq-26" value="SE IDADE &amp;gt;= 18 e &amp;lt;= 60" style="text;html=1;strokeColor=none;fillColor=none;align=center;verticalAlign=middle;whiteSpace=wrap;rounded=0;fontSize=10;fontFamily=Montserrat;fontStyle=1" vertex="1" parent="WIyWlLk6GJQsqaUBKTNV-1">
          <mxGeometry x="280" y="215" width="120" height="20" as="geometry" />
        </mxCell>
        <mxCell id="_vc62bu4L6rgQ7pUkIKq-27" value="Pode doar" style="rounded=1;whiteSpace=wrap;html=1;fontSize=12;glass=0;strokeWidth=1;shadow=0;fontFamily=Montserrat;" vertex="1" parent="WIyWlLk6GJQsqaUBKTNV-1">
          <mxGeometry x="430" y="220" width="120" height="40" as="geometry" />
        </mxCell>
        <mxCell id="_vc62bu4L6rgQ7pUkIKq-28" value="Necessária a autorização do responsável" style="rounded=1;whiteSpace=wrap;html=1;fontSize=12;glass=0;strokeWidth=1;shadow=0;fontFamily=Montserrat;" vertex="1" parent="WIyWlLk6GJQsqaUBKTNV-1">
          <mxGeometry x="430" y="150" width="120" height="40" as="geometry" />
        </mxCell>
        <mxCell id="_vc62bu4L6rgQ7pUkIKq-30" value="SENÃO" style="text;html=1;strokeColor=none;fillColor=none;align=center;verticalAlign=middle;whiteSpace=wrap;rounded=0;fontSize=10;fontFamily=Montserrat;fontStyle=1" vertex="1" parent="WIyWlLk6GJQsqaUBKTNV-1">
          <mxGeometry x="770" y="180" width="70" height="20" as="geometry" />
        </mxCell>
        <mxCell id="_vc62bu4L6rgQ7pUkIKq-32" value="Não pode doar" style="rounded=1;whiteSpace=wrap;html=1;fontSize=12;glass=0;strokeWidth=1;shadow=0;fontFamily=Montserrat;" vertex="1" parent="WIyWlLk6GJQsqaUBKTNV-1">
          <mxGeometry x="840" y="190" width="120" height="40" as="geometry" />
        </mxCell>
        <mxCell id="_vc62bu4L6rgQ7pUkIKq-38" value="" style="line;strokeWidth=2;html=1;fontSize=10;rotation=-135;fontFamily=Montserrat;" vertex="1" parent="WIyWlLk6GJQsqaUBKTNV-1">
          <mxGeometry x="690" y="220" width="50" height="10" as="geometry" />
        </mxCell>
        <mxCell id="_vc62bu4L6rgQ7pUkIKq-40" value="SE IDADE &amp;gt;= 61 e &amp;lt;= 69" style="text;html=1;strokeColor=none;fillColor=none;align=center;verticalAlign=middle;whiteSpace=wrap;rounded=0;fontSize=10;fontFamily=Montserrat;fontStyle=1" vertex="1" parent="WIyWlLk6GJQsqaUBKTNV-1">
          <mxGeometry x="590" y="220" width="120" height="20" as="geometry" />
        </mxCell>
        <mxCell id="_vc62bu4L6rgQ7pUkIKq-42" value="Já doou&lt;br&gt;&amp;nbsp;sangue anteriormente?" style="rhombus;whiteSpace=wrap;html=1;shadow=0;fontFamily=Montserrat;fontSize=10;align=center;strokeWidth=1;spacing=6;spacingTop=-4;fillColor=#dae8fc;strokeColor=#6c8ebf;" vertex="1" parent="WIyWlLk6GJQsqaUBKTNV-1">
          <mxGeometry x="690" y="240" width="90" height="77.5" as="geometry" />
        </mxCell>
        <mxCell id="_vc62bu4L6rgQ7pUkIKq-43" value="" style="line;strokeWidth=2;html=1;fontSize=10;rotation=-45;fontFamily=Montserrat;" vertex="1" parent="WIyWlLk6GJQsqaUBKTNV-1">
          <mxGeometry x="690" y="332.5" width="50" height="10" as="geometry" />
        </mxCell>
        <mxCell id="_vc62bu4L6rgQ7pUkIKq-44" value="SIM" style="text;html=1;strokeColor=none;fillColor=none;align=center;verticalAlign=middle;whiteSpace=wrap;rounded=0;fontSize=10;fontFamily=Montserrat;fontStyle=1" vertex="1" parent="WIyWlLk6GJQsqaUBKTNV-1">
          <mxGeometry x="680" y="312.5" width="40" height="20" as="geometry" />
        </mxCell>
        <mxCell id="_vc62bu4L6rgQ7pUkIKq-45" value="Pode doar" style="rounded=1;whiteSpace=wrap;html=1;fontSize=12;glass=0;strokeWidth=1;shadow=0;fontFamily=Montserrat;" vertex="1" parent="WIyWlLk6GJQsqaUBKTNV-1">
          <mxGeometry x="590" y="342.5" width="120" height="40" as="geometry" />
        </mxCell>
        <mxCell id="_vc62bu4L6rgQ7pUkIKq-46" value="" style="line;strokeWidth=2;html=1;fontSize=10;rotation=45;fontFamily=Montserrat;" vertex="1" parent="WIyWlLk6GJQsqaUBKTNV-1">
          <mxGeometry x="730" y="332.5" width="50" height="10" as="geometry" />
        </mxCell>
        <mxCell id="_vc62bu4L6rgQ7pUkIKq-47" value="Não pode doar" style="rounded=1;whiteSpace=wrap;html=1;fontSize=12;glass=0;strokeWidth=1;shadow=0;fontFamily=Montserrat;" vertex="1" parent="WIyWlLk6GJQsqaUBKTNV-1">
          <mxGeometry x="740" y="342.5" width="120" height="40" as="geometry" />
        </mxCell>
        <mxCell id="_vc62bu4L6rgQ7pUkIKq-48" value="NÃO" style="text;html=1;strokeColor=none;fillColor=none;align=center;verticalAlign=middle;whiteSpace=wrap;rounded=0;fontSize=10;fontFamily=Montserrat;fontStyle=1" vertex="1" parent="WIyWlLk6GJQsqaUBKTNV-1">
          <mxGeometry x="760" y="312.5" width="40" height="20" as="geometry" />
        </mxCell>
        <mxCell id="_vc62bu4L6rgQ7pUkIKq-54" value="" style="line;strokeWidth=2;html=1;fontSize=10;rotation=90;fontFamily=Montserrat;" vertex="1" parent="WIyWlLk6GJQsqaUBKTNV-1">
          <mxGeometry x="151.25" y="520" width="137.5" height="10" as="geometry" />
        </mxCell>
        <mxCell id="_vc62bu4L6rgQ7pUkIKq-13" value="Peso &amp;gt;=50kg" style="rhombus;whiteSpace=wrap;html=1;shadow=0;fontFamily=Montserrat;fontSize=10;align=center;strokeWidth=1;spacing=6;spacingTop=-4;fillColor=#ffe6cc;strokeColor=#d79b00;" vertex="1" parent="WIyWlLk6GJQsqaUBKTNV-1">
          <mxGeometry x="170" y="380" width="100" height="80" as="geometry" />
        </mxCell>
        <mxCell id="_vc62bu4L6rgQ7pUkIKq-55" value="" style="line;strokeWidth=2;html=1;fontSize=10;rotation=45;fontFamily=Montserrat;" vertex="1" parent="WIyWlLk6GJQsqaUBKTNV-1">
          <mxGeometry x="260" y="640" width="50" height="10" as="geometry" />
        </mxCell>
        <mxCell id="_vc62bu4L6rgQ7pUkIKq-56" value="NÃO" style="text;html=1;strokeColor=none;fillColor=none;align=center;verticalAlign=middle;whiteSpace=wrap;rounded=0;fontSize=10;fontFamily=Montserrat;fontStyle=1" vertex="1" parent="WIyWlLk6GJQsqaUBKTNV-1">
          <mxGeometry x="250" y="650" width="40" height="20" as="geometry" />
        </mxCell>
        <mxCell id="_vc62bu4L6rgQ7pUkIKq-57" value="Pode doar" style="rounded=1;whiteSpace=wrap;html=1;fontSize=12;glass=0;strokeWidth=1;shadow=0;fontFamily=Montserrat;" vertex="1" parent="WIyWlLk6GJQsqaUBKTNV-1">
          <mxGeometry x="290" y="640" width="120" height="40" as="geometry" />
        </mxCell>
        <mxCell id="_vc62bu4L6rgQ7pUkIKq-53" value="Possui tatuagem?" style="rhombus;whiteSpace=wrap;html=1;shadow=0;fontFamily=Montserrat;fontSize=10;align=center;strokeWidth=1;spacing=6;spacingTop=-4;fillColor=#ffe6cc;strokeColor=#d79b00;" vertex="1" parent="WIyWlLk6GJQsqaUBKTNV-1">
          <mxGeometry x="170" y="590" width="100" height="80" as="geometry" />
        </mxCell>
        <mxCell id="_vc62bu4L6rgQ7pUkIKq-58" value="" style="line;strokeWidth=2;html=1;fontSize=10;rotation=-45;fontFamily=Montserrat;" vertex="1" parent="WIyWlLk6GJQsqaUBKTNV-1">
          <mxGeometry x="254.14" y="595.86" width="90" height="10" as="geometry" />
        </mxCell>
        <mxCell id="_vc62bu4L6rgQ7pUkIKq-59" value="SIM" style="text;html=1;strokeColor=none;fillColor=none;align=center;verticalAlign=middle;whiteSpace=wrap;rounded=0;fontSize=10;fontFamily=Montserrat;fontStyle=1" vertex="1" parent="WIyWlLk6GJQsqaUBKTNV-1">
          <mxGeometry x="248.75" y="590" width="40" height="20" as="geometry" />
        </mxCell>
        <mxCell id="_vc62bu4L6rgQ7pUkIKq-63" value="Não pode doar" style="rounded=1;whiteSpace=wrap;html=1;fontSize=12;glass=0;strokeWidth=1;shadow=0;fontFamily=Montserrat;" vertex="1" parent="WIyWlLk6GJQsqaUBKTNV-1">
          <mxGeometry x="450" y="580.86" width="120" height="40" as="geometry" />
        </mxCell>
        <mxCell id="_vc62bu4L6rgQ7pUkIKq-64" value="Há mais de 1 ano?" style="rhombus;whiteSpace=wrap;html=1;shadow=0;fontFamily=Montserrat;fontSize=10;align=center;strokeWidth=1;spacing=6;spacingTop=-4;fillColor=#dae8fc;strokeColor=#6c8ebf;" vertex="1" parent="WIyWlLk6GJQsqaUBKTNV-1">
          <mxGeometry x="330" y="530" width="90" height="77.5" as="geometry" />
        </mxCell>
        <mxCell id="_vc62bu4L6rgQ7pUkIKq-65" value="" style="line;strokeWidth=2;html=1;fontSize=10;rotation=45;fontFamily=Montserrat;" vertex="1" parent="WIyWlLk6GJQsqaUBKTNV-1">
          <mxGeometry x="410" y="580" width="50" height="10" as="geometry" />
        </mxCell>
        <mxCell id="_vc62bu4L6rgQ7pUkIKq-66" value="" style="line;strokeWidth=2;html=1;fontSize=10;rotation=-45;fontFamily=Montserrat;" vertex="1" parent="WIyWlLk6GJQsqaUBKTNV-1">
          <mxGeometry x="410" y="550" width="50" height="10" as="geometry" />
        </mxCell>
        <mxCell id="_vc62bu4L6rgQ7pUkIKq-67" value="SIM" style="text;html=1;strokeColor=none;fillColor=none;align=center;verticalAlign=middle;whiteSpace=wrap;rounded=0;fontSize=10;fontFamily=Montserrat;fontStyle=1" vertex="1" parent="WIyWlLk6GJQsqaUBKTNV-1">
          <mxGeometry x="400" y="540" width="40" height="20" as="geometry" />
        </mxCell>
        <mxCell id="_vc62bu4L6rgQ7pUkIKq-68" value="NÃO" style="text;html=1;strokeColor=none;fillColor=none;align=center;verticalAlign=middle;whiteSpace=wrap;rounded=0;fontSize=10;fontFamily=Montserrat;fontStyle=1" vertex="1" parent="WIyWlLk6GJQsqaUBKTNV-1">
          <mxGeometry x="400" y="580" width="40" height="20" as="geometry" />
        </mxCell>
        <mxCell id="_vc62bu4L6rgQ7pUkIKq-69" value="Pode doar" style="rounded=1;whiteSpace=wrap;html=1;fontSize=12;glass=0;strokeWidth=1;shadow=0;fontFamily=Montserrat;" vertex="1" parent="WIyWlLk6GJQsqaUBKTNV-1">
          <mxGeometry x="450" y="510" width="120" height="40" as="geometry" />
        </mxCell>
      </root>
    </mxGraphModel>
  </diagram>
</mxfile>
